<svg width="80" height="80" viewBox="0 0 80 80" fill="none" xmlns="http://www.w3.org/2000/svg">
<path d="M79.1919 39.596C79.1919 61.4642 61.4642 79.1919 39.596 79.1919C17.7277 79.1919 0 61.4642 0 39.596C0 17.7277 17.7277 0 39.596 0C61.4642 0 79.1919 17.7277 79.1919 39.596Z" fill="url(#paint0_radial_6198_17582)"/>
<path d="M15.4951 34.5649C15.4951 32.9111 16.7194 31.5127 18.3587 31.2941L51.3553 26.8946C53.3334 26.6308 55.0911 28.1697 55.0911 30.1653V49.025C55.0911 51.0206 53.3334 52.5594 51.3553 52.2957L18.3587 47.8961C16.7194 47.6776 15.4951 46.2792 15.4951 44.6254V34.5649Z" fill="white"/>
<path opacity="0.6" d="M17.2824 36.7713C16.4555 35.3391 16.8166 33.5159 18.127 32.507L44.5031 12.1985C46.0844 10.9811 48.376 11.4349 49.3738 13.1632L58.8036 29.4961C59.8014 31.2244 59.0487 33.4359 57.2037 34.1965L26.428 46.8847C24.899 47.5151 23.1396 46.9162 22.3127 45.484L17.2824 36.7713Z" fill="white"/>
<path opacity="0.6" d="M17.2824 43.8342C16.4555 45.2664 16.8166 47.0896 18.127 48.0985L44.5031 68.4069C46.0844 69.6244 48.376 69.1705 49.3738 67.4423L58.8036 51.1093C59.8014 49.3811 59.0487 47.1696 57.2037 46.4089L26.428 33.7207C24.899 33.0904 23.1396 33.6892 22.3127 35.1215L17.2824 43.8342Z" fill="white"/>
<defs>
<radialGradient id="paint0_radial_6198_17582" cx="0" cy="0" r="1" gradientUnits="userSpaceOnUse" gradientTransform="translate(11.5202 67.6731) rotate(-36.4515) scale(78.761 167.033)">
<stop stop-color="#FFD338"/>
<stop offset="1" stop-color="#FF8660"/>
</radialGradient>
</defs>
</svg>
