<svg width="80" height="80" viewBox="0 0 80 80" fill="none" xmlns="http://www.w3.org/2000/svg">
<path d="M79.1919 39.596C79.1919 61.4642 61.4642 79.1919 39.596 79.1919C17.7277 79.1919 0 61.4642 0 39.596C0 17.7277 17.7277 0 39.596 0C61.4642 0 79.1919 17.7277 79.1919 39.596Z" fill="url(#paint0_linear_6198_17624)"/>
<path opacity="0.2" d="M37.4258 65.1718C38.6216 66.5074 40.7976 66.1629 41.5225 64.5234C42.1169 63.1782 43.7489 62.6478 45.0205 63.3867C46.5705 64.2872 48.5333 63.2862 48.7158 61.5029C48.8656 60.0399 50.2537 59.0311 51.6914 59.3408C53.444 59.7183 55.0014 58.1598 54.624 56.4072C54.3146 54.9695 55.3231 53.5814 56.7861 53.4316C58.5696 53.249 59.5693 51.2856 58.6689 49.7353C57.9302 48.4634 58.4604 46.831 59.8057 46.2363C61.4454 45.5113 61.7896 43.3349 60.4541 42.1386C59.359 41.1573 59.359 39.4422 60.4541 38.4609C61.7896 37.2646 61.4454 35.0883 59.8057 34.3632C58.4604 33.7685 57.9302 32.1361 58.6689 30.8642C59.5693 29.3139 58.5696 27.3506 56.7861 27.1679C55.3231 27.0181 54.3146 25.6301 54.624 24.1923C55.0014 22.4398 53.444 20.8812 51.6914 21.2587C50.2537 21.5684 48.8656 20.5596 48.7158 19.0966C48.5333 17.3133 46.5706 16.3123 45.0205 17.2128C43.7489 17.9517 42.117 17.4214 41.5225 16.0761C40.7976 14.4366 38.6216 14.0921 37.4258 15.4277C36.4447 16.5232 34.7291 16.5232 33.748 15.4277C32.5522 14.0921 30.3762 14.4365 29.6514 16.0761C29.0569 17.4213 27.425 17.9517 26.1533 17.2128C24.6033 16.3125 22.6406 17.3133 22.458 19.0966C22.3082 20.5597 20.9201 21.5684 19.4824 21.2587C17.7299 20.8813 16.1724 22.4398 16.5498 24.1923C16.8592 25.6301 15.8507 27.0181 14.3877 27.1679C12.6044 27.3507 11.6047 29.314 12.5049 30.8642C13.2436 32.1361 12.7134 33.7685 11.3682 34.3632C9.72859 35.0884 9.38427 37.2647 10.7197 38.4609C11.815 39.4422 11.815 41.1573 10.7197 42.1386C9.38427 43.3348 9.72857 45.5111 11.3682 46.2363C12.7134 46.831 13.2436 48.4634 12.5049 49.7353C11.6047 51.2855 12.6044 53.2488 14.3877 53.4316C15.8507 53.5814 16.8593 54.9694 16.5498 56.4072C16.1724 58.1597 17.7299 59.7182 19.4824 59.3408C20.9201 59.0311 22.3082 60.0398 22.458 61.5029C22.6405 63.2862 24.6033 64.287 26.1533 63.3867C27.425 62.6478 29.0569 63.1782 29.6514 64.5234C30.3762 66.163 32.5522 66.5074 33.748 65.1718C34.7291 64.0762 36.4447 64.0763 37.4258 65.1718ZM35.3164 46.6201C28.9384 46.6201 23.7676 41.4493 23.7676 35.0712C23.7677 28.6933 28.9385 23.5234 35.3164 23.5234C41.6942 23.5236 46.8641 28.6934 46.8643 35.0712C46.8643 41.4492 41.6943 46.6199 35.3164 46.6201Z" fill="white"/>
<path opacity="0.6" d="M43.7852 61.8261C44.8973 63.0718 46.9263 62.7468 47.5996 61.2187C48.1521 59.9652 49.6739 59.4694 50.8575 60.1592C52.2993 60.9994 54.1284 60.0596 54.2979 58.3994C54.4371 57.0366 55.7313 56.0915 57.0703 56.3808C58.7016 56.7331 60.1502 55.2733 59.7998 53.6416C59.5122 52.3015 60.451 51.0013 61.8145 50.8613C63.4758 50.6904 64.4044 48.8554 63.5674 47.4101C62.8802 46.2232 63.3712 44.6976 64.625 44.1416C66.1537 43.4638 66.4735 41.4339 65.2295 40.3164C64.2086 39.3991 64.2085 37.7962 65.2295 36.8789C66.4735 35.7614 66.1537 33.7315 64.625 33.0537C63.3712 32.4977 62.8801 30.9721 63.5674 29.7851C64.4044 28.3399 63.4758 26.5048 61.8145 26.334C60.451 26.1939 59.5122 24.8938 59.7998 23.5537C60.1502 21.9219 58.7017 20.463 57.0704 20.8154C55.7313 21.1047 54.4371 20.1587 54.2979 18.7959C54.1284 17.1357 52.2993 16.1959 50.8575 17.0361C49.6739 17.7258 48.1521 17.2301 47.5997 15.9765C46.9263 14.4484 44.8974 14.1235 43.7852 15.3691C42.8724 16.3915 41.2732 16.3915 40.3604 15.3691C39.2483 14.1234 37.2183 14.4484 36.545 15.9765C35.9924 17.2299 34.4707 17.7258 33.2872 17.0361C31.8454 16.1964 30.0162 17.1359 29.8467 18.7959C29.7075 20.1586 28.4142 21.1046 27.0752 20.8154C25.4439 20.463 23.9945 21.9219 24.3448 23.5537C24.6325 24.8938 23.6946 26.1939 22.3311 26.334C20.6696 26.5046 19.7411 28.3398 20.5782 29.7851C21.2653 30.972 20.7742 32.4976 19.5205 33.0537C17.992 33.7314 17.6714 35.7613 18.9151 36.8789C19.9362 37.7962 19.9362 39.399 18.9151 40.3164C17.6714 41.4339 17.992 43.4638 19.5205 44.1416C20.7742 44.6976 21.2653 46.2233 20.5782 47.4101C19.7411 48.8555 20.6696 50.6906 22.3311 50.8613C23.6946 51.0013 24.6325 52.3014 24.3448 53.6416C23.9944 55.2734 25.4439 56.7333 27.0752 56.3808C28.4143 56.0916 29.7075 57.0366 29.8467 58.3994C30.0161 60.0594 31.8453 60.9989 33.2871 60.1591C34.4706 59.4695 35.9924 59.9654 36.545 61.2187C37.2183 62.7469 39.2482 63.0719 40.3604 61.8261C41.2732 60.8038 42.8724 60.8038 43.7852 61.8261ZM41.1729 50.9463C34.8135 50.9463 29.6584 45.7763 29.6582 39.3984C29.6582 33.0204 34.8134 27.8496 41.1729 27.8496C47.5323 27.8497 52.6875 33.0204 52.6875 39.3984C52.6874 45.7762 47.5322 50.9461 41.1729 50.9463Z" fill="white"/>
<path d="M40.5516 55.758C41.517 56.8363 43.2739 56.5582 43.8592 55.2345C44.3392 54.1484 45.6567 53.72 46.6834 54.3166C47.9348 55.0437 49.5193 54.2358 49.6668 52.7961C49.7877 51.6149 50.9085 50.8002 52.0691 51.05C53.4841 51.3548 54.742 50.0968 54.4373 48.6818C54.1874 47.5211 55.0013 46.4006 56.1824 46.2795C57.6223 46.132 58.4297 44.5467 57.7029 43.2951C57.1065 42.2682 57.5348 40.9501 58.6209 40.4699C59.9445 39.8844 60.2224 38.128 59.1443 37.1623C58.2597 36.3699 58.2597 34.9839 59.1443 34.1916C60.2224 33.2258 59.9446 31.4694 58.6209 30.884C57.5348 30.4038 57.1065 29.0856 57.7029 28.0588C58.4297 26.8071 57.6223 25.2228 56.1824 25.0754C55.0013 24.9543 54.1874 23.8328 54.4373 22.672C54.7419 21.2571 53.4841 19.9991 52.0692 20.3039C50.9085 20.5537 49.7877 19.7389 49.6668 18.5578C49.5192 17.1181 47.9348 16.3102 46.6834 17.0373C45.6567 17.6338 44.3392 17.2054 43.8592 16.1193C43.2739 14.7957 41.517 14.5176 40.5516 15.5959C39.7595 16.4803 38.3749 16.4802 37.5828 15.5959C36.6174 14.5176 34.8605 14.7958 34.2752 16.1193C33.7952 17.2054 32.4777 17.6338 31.451 17.0373C30.1996 16.3102 28.6152 17.1181 28.4676 18.5578C28.3467 19.7389 27.2259 20.5536 26.0652 20.3039C24.6503 19.9991 23.3924 21.2571 23.6971 22.672C23.947 23.8328 23.1331 24.9542 21.952 25.0754C20.5121 25.2228 19.7047 26.8071 20.4315 28.0588C21.0279 29.0856 20.5996 30.4038 19.5135 30.8839C18.1898 31.4694 17.9119 33.2258 18.9901 34.1916C19.8747 34.9839 19.8746 36.3699 18.9901 37.1623C17.9119 38.128 18.1898 39.8844 19.5135 40.4699C20.5996 40.9501 21.0279 42.2682 20.4315 43.2951C19.7046 44.5467 20.5121 46.132 21.952 46.2795C23.133 46.4006 23.947 47.5211 23.6971 48.6818C23.3924 50.0968 24.6503 51.3548 26.0652 51.05C27.2259 50.8002 28.3467 51.6149 28.4676 52.7961C28.6151 54.2358 30.1996 55.0437 31.451 54.3166C32.4777 53.72 33.7952 54.1485 34.2752 55.2345C34.8605 56.5582 36.6174 56.8362 37.5828 55.758C38.3749 54.8737 39.7595 54.8737 40.5516 55.758ZM39.4754 40.4816C37.043 40.4815 35.0713 38.5092 35.0711 36.0763C35.0711 33.6433 37.0429 31.6702 39.4754 31.6701C41.908 31.6701 43.8807 33.6432 43.8807 36.0763C43.8805 38.5093 41.9079 40.4816 39.4754 40.4816Z" fill="white"/>
<defs>
<linearGradient id="paint0_linear_6198_17624" x1="3.61084e-07" y1="1.64983" x2="77.5421" y2="79.1919" gradientUnits="userSpaceOnUse">
<stop stop-color="#FF688B"/>
<stop offset="1" stop-color="#FFD19A"/>
</linearGradient>
</defs>
</svg>
