<svg width="80" height="80" viewBox="0 0 80 80" fill="none" xmlns="http://www.w3.org/2000/svg">
<circle cx="39.596" cy="39.596" r="39.596" fill="url(#paint0_linear_6198_17607)"/>
<path opacity="0.4" d="M19.7979 44.1272C19.7979 42.7361 20.7498 41.5258 22.1017 41.198L38.8857 37.1292C39.3524 37.0161 39.8393 37.0161 40.3059 37.1292L57.09 41.198C58.4418 41.5258 59.3938 42.7361 59.3938 44.1272V59.2917C59.3938 61.3142 57.4413 62.7627 55.5058 62.1762L40.4699 57.6198C39.9 57.4471 39.2917 57.4471 38.7218 57.6198L23.6859 62.1762C21.7504 62.7627 19.7979 61.3142 19.7979 59.2917V44.1272Z" fill="white"/>
<path opacity="0.7" d="M19.7979 33.5686C19.7979 32.1775 20.7498 30.9672 22.1017 30.6394L38.8857 26.5706C39.3524 26.4575 39.8393 26.4575 40.3059 26.5706L57.09 30.6394C58.4418 30.9672 59.3938 32.1775 59.3938 33.5686V48.7331C59.3938 50.7556 57.4413 52.2041 55.5058 51.6176L40.4699 47.0612C39.9 46.8885 39.2917 46.8885 38.7218 47.0612L23.6859 51.6176C21.7504 52.2041 19.7979 50.7556 19.7979 48.7331V33.5686Z" fill="white"/>
<path d="M19.7998 23.01C19.7998 21.6189 20.7518 20.4086 22.1037 20.0808L38.8877 16.012C39.3543 15.8989 39.8412 15.8989 40.3079 16.012L57.0919 20.0808C58.4438 20.4086 59.3958 21.6189 59.3958 23.01V38.1745C59.3958 40.197 57.4433 41.6455 55.5077 41.059L40.4719 36.5026C39.9019 36.3299 39.2936 36.3299 38.7237 36.5026L23.6879 41.059C21.7523 41.6455 19.7998 40.197 19.7998 38.1745V23.01Z" fill="white"/>
<defs>
<linearGradient id="paint0_linear_6198_17607" x1="-9.42001" y1="-16.0736" x2="141.881" y2="89.9871" gradientUnits="userSpaceOnUse">
<stop offset="0.11138" stop-color="#FF577F"/>
<stop offset="0.857227" stop-color="#FFB287"/>
</linearGradient>
</defs>
</svg>
